<svg xmlns="http://www.w3.org/2000/svg" xmlns:xlink="http://www.w3.org/1999/xlink" id="Layer_1" x="0px" y="0px" viewBox="0 0 308.6 75.6" style="enable-background:new 0 0 308.6 75.6;" xml:space="preserve"><style type="text/css">	.st0{fill:#DA291C;}</style><g>	<path class="st0" d="M133.5,44.4c0.5-4.3,2.6-13,12.6-12.6c8,0,11.3,7.1,11.8,12.6H133.5z M169,47.5c0-12.6-8.5-25.7-22.8-25.7   c-15.6,0-23.8,13.5-23.8,26.9c0,12.4,6.3,26.9,24.2,26.9c9.8,0,21.3-6.3,21.3-11.6c0-3.3-2.3-5-4.4-5c-1.5,0-2.8,1-4.2,2.2   c-2.5,1.9-5.9,4.6-12.5,4.6c-7.5,0-12.6-4.9-13.2-12.4H163C167.1,53.3,169,51.4,169,47.5 M285.3,65.7c-9.1,0-12.3-9.1-12.3-17   s3.2-17,12.3-17c9.1,0,12.3,9.2,12.3,17S294.4,65.7,285.3,65.7 M285.3,21.9C270,21.9,262,35.4,262,48.7c0,13.3,8,26.9,23.3,26.9   c15.3,0,23.3-13.5,23.3-26.9C308.6,35.4,300.6,21.9,285.3,21.9 M198.5,31.7c2.9,0,4.4,0.7,5.9,1.5c1.2,0.6,2.4,1.2,4.1,1.2   c2.8,0,4.7-2.5,4.7-4.9c0-4.6-5.9-7.7-14.8-7.7c-16.4,0-23.8,13.5-23.8,26.9c0,13.4,7.4,26.9,23.8,26.9c9.5,0,14.5-3.9,14.5-7.8   c0-2.9-1.8-4.9-4.6-4.9c-1.4,0-2.5,0.6-3.6,1.2c-1.5,0.8-3.2,1.6-6.3,1.6c-10.1,0-12.8-10.7-12.8-17   C185.7,42.4,188.4,31.7,198.5,31.7 M45.6,10.6c-0.8-2.2-2.4-6.2-7.1-6.2c-4.7,0-6.2,3.8-7.1,6.1c0,0.1-7.9,21-14,37.6H5.5   c-4.1,0-5.5,2.6-5.5,4.8c0,2.3,1.5,4.8,5.5,4.8h8.2c-2.2,5.8-3.7,9.7-3.7,9.7c-0.4,0.9-0.8,2.3-0.8,3.5c0,2.3,1.7,4.7,5,4.7   c3.5,0,4.6-2.3,5.4-3.9l0.2-0.4l4.4-12c0,0,0.3-0.7,0.6-1.7h13.6c4.1,0,5.6-2.5,5.6-4.8c0-2.2-1.5-4.8-5.6-4.8H28.5   c2.6-7.2,7.3-20,9.9-27.1c2.8,7.6,11.8,32.3,11.9,32.3c0,0,2.2,6.1,2.2,6.1c0,0,4.3,11.9,4.3,11.9c0.6,1.4,1.7,4.4,5.6,4.4   c3.3,0,5.1-2.4,5.1-4.7c0-1.2-0.4-2.6-0.8-3.6C66.8,67.4,45.6,10.6,45.6,10.6 M242.2,31.7c2.9,0,4.4,0.7,5.9,1.5   c1.2,0.6,2.4,1.2,4.1,1.2c2.8,0,4.7-2.5,4.7-4.9c0-4.6-5.9-7.7-14.8-7.7c-16.5,0-23.8,13.5-23.8,26.9c0,13.4,7.4,26.9,23.8,26.9   c9.5,0,14.5-3.9,14.5-7.8c0-2.9-1.8-4.9-4.6-4.9c-1.4,0-2.4,0.6-3.6,1.2c-1.5,0.8-3.2,1.6-6.3,1.6c-10.1,0-12.9-10.7-12.9-17   C229.3,42.4,232,31.7,242.2,31.7 M92.9,65.7c-9.1,0-12.3-9.1-12.3-17s3.2-17,12.3-17s12.3,9.2,12.3,17S102,65.7,92.9,65.7 M109.8,0   c-3.2,0-5.4,2.3-5.4,5.8v20.8c-2.8-2.6-7-4.7-12.1-4.7c-14.9,0-22.6,13.5-22.6,26.9c0,13.3,7.8,26.9,22.6,26.9   c5.4,0,9.5-1.6,12.3-4.5c0.5,2.7,2.4,4.5,5.2,4.5c3.3,0,5.5-2.3,5.5-5.8v-64C115.3,2.3,113.1,0,109.8,0"></path></g></svg>